<svg xmlns="http://www.w3.org/2000/svg" width="1080" height="1440" viewBox="0 0 1080 1440">
  <rect width="1080" height="1440" fill="#f2f7f5"/>
  <rect x="0" y="0" width="1080" height="126" fill="#1f2529"/>
  <text x="92" y="80" font-family="PingFang SC, Noto Sans CJK SC, Arial, sans-serif" font-size="34" font-weight="800" fill="#ffffff">Kaji</text>
  <circle cx="808" cy="63" r="24" fill="none" stroke="#ffffff" stroke-width="8"/>
  <circle cx="874" cy="63" r="24" fill="none" stroke="#5c86a3" stroke-width="8"/>
  <text x="948" y="75" font-family="Arial, sans-serif" font-size="34" font-weight="800" fill="#ffffff">16:20</text>

  <text x="92" y="300" font-family="PingFang SC, Noto Sans CJK SC, Arial, sans-serif" font-size="114" font-weight="900" fill="#101418">状态</text>
  <text x="92" y="430" font-family="PingFang SC, Noto Sans CJK SC, Arial, sans-serif" font-size="114" font-weight="900" fill="#101418">放进菜单栏</text>

  <rect x="92" y="488" width="496" height="74" rx="37" fill="#5c86a3"/>
  <text x="340" y="538" text-anchor="middle" font-family="PingFang SC, Noto Sans CJK SC, Arial, sans-serif" font-size="38" font-weight="800" fill="#ffffff">Kaji 开源</text>

  <g transform="translate(118 662)">
    <rect width="844" height="468" rx="38" fill="#ffffff" stroke="#1f2529" stroke-width="6"/>
    <rect x="48" y="42" width="748" height="70" rx="35" fill="#eef2f0"/>
    <text x="86" y="89" font-family="PingFang SC, Noto Sans CJK SC, Arial, sans-serif" font-size="31" font-weight="800" fill="#1f2529">Codex</text>
    <text x="704" y="89" text-anchor="end" font-family="Arial, sans-serif" font-size="31" font-weight="800" fill="#5c86a3">running</text>

    <g transform="translate(58 160)">
      <text x="0" y="0" font-family="PingFang SC, Noto Sans CJK SC, Arial, sans-serif" font-size="30" font-weight="800" fill="#1f2529">5h 用量</text>
      <rect x="0" y="28" width="326" height="26" rx="13" fill="#dfe7e4"/>
      <rect x="0" y="28" width="226" height="26" rx="13" fill="#5c86a3"/>
      <text x="374" y="53" font-family="Arial, sans-serif" font-size="30" font-weight="800" fill="#1f2529">69%</text>
    </g>

    <g transform="translate(58 260)">
      <text x="0" y="0" font-family="PingFang SC, Noto Sans CJK SC, Arial, sans-serif" font-size="30" font-weight="800" fill="#1f2529">token 压力</text>
      <rect x="0" y="28" width="326" height="26" rx="13" fill="#dfe7e4"/>
      <rect x="0" y="28" width="278" height="26" rx="13" fill="#e83f4f"/>
      <text x="374" y="53" font-family="Arial, sans-serif" font-size="30" font-weight="800" fill="#1f2529">high</text>
    </g>

    <g transform="translate(58 360)">
      <rect width="214" height="54" rx="27" fill="#1f2529"/>
      <text x="107" y="37" text-anchor="middle" font-family="PingFang SC, Noto Sans CJK SC, Arial, sans-serif" font-size="26" font-weight="800" fill="#ffffff">Keep Awake</text>
      <rect x="248" width="178" height="54" rx="27" fill="#eef2f0"/>
      <text x="337" y="37" text-anchor="middle" font-family="PingFang SC, Noto Sans CJK SC, Arial, sans-serif" font-size="26" font-weight="800" fill="#1f2529">休息提醒</text>
    </g>
  </g>

  <text x="92" y="1238" font-family="PingFang SC, Noto Sans CJK SC, Arial, sans-serif" font-size="48" font-weight="900" fill="#101418">AI coding 长任务更可控</text>
  <text x="92" y="1308" font-family="PingFang SC, Noto Sans CJK SC, Arial, sans-serif" font-size="30" font-weight="700" fill="#53616b">macOS · Apple Silicon · GitHub 开源</text>
</svg>
