<svg xmlns="http://www.w3.org/2000/svg" width="1080" height="1440" viewBox="0 0 1080 1440">
  <rect width="1080" height="1440" fill="#f7f5ef"/>
  <rect x="74" y="74" width="932" height="1292" rx="42" fill="#ffffff" stroke="#1e2428" stroke-width="6"/>
  <rect x="138" y="142" width="804" height="84" rx="42" fill="#20262b"/>
  <circle cx="184" cy="184" r="15" fill="#f15b5b"/>
  <circle cx="232" cy="184" r="15" fill="#f4c35b"/>
  <circle cx="280" cy="184" r="15" fill="#64c27b"/>
  <text x="540" y="198" text-anchor="middle" font-family="PingFang SC, Noto Sans CJK SC, Arial, sans-serif" font-size="34" font-weight="700" fill="#ffffff">Kaji</text>

  <text x="116" y="352" font-family="PingFang SC, Noto Sans CJK SC, Arial, sans-serif" font-size="116" font-weight="900" fill="#111418">AI Coding</text>
  <text x="116" y="486" font-family="PingFang SC, Noto Sans CJK SC, Arial, sans-serif" font-size="124" font-weight="900" fill="#111418">别失控</text>

  <rect x="116" y="540" width="420" height="74" rx="37" fill="#e83f4f"/>
  <text x="326" y="590" text-anchor="middle" font-family="PingFang SC, Noto Sans CJK SC, Arial, sans-serif" font-size="38" font-weight="800" fill="#ffffff">macOS 菜单栏工具</text>

  <g transform="translate(116 700)">
    <rect width="848" height="410" rx="34" fill="#eef4f6" stroke="#20262b" stroke-width="5"/>
    <text x="58" y="86" font-family="PingFang SC, Noto Sans CJK SC, Arial, sans-serif" font-size="42" font-weight="800" fill="#20262b">额度 / token / 休息</text>
    <text x="58" y="146" font-family="PingFang SC, Noto Sans CJK SC, Arial, sans-serif" font-size="34" font-weight="600" fill="#53616b">一眼看住长任务状态</text>

    <g transform="translate(64 206)">
      <circle cx="70" cy="70" r="62" fill="none" stroke="#d9e1e5" stroke-width="18"/>
      <path d="M70 8a62 62 0 1 1-53 94" fill="none" stroke="#5c86a3" stroke-width="18" stroke-linecap="round"/>
      <text x="70" y="80" text-anchor="middle" font-family="Arial, sans-serif" font-size="31" font-weight="800" fill="#20262b">5h</text>
      <text x="70" y="164" text-anchor="middle" font-family="PingFang SC, Noto Sans CJK SC, Arial, sans-serif" font-size="25" font-weight="700" fill="#53616b">用量</text>
    </g>

    <g transform="translate(332 206)">
      <circle cx="70" cy="70" r="62" fill="none" stroke="#d9e1e5" stroke-width="18"/>
      <path d="M70 8a62 62 0 0 1 61 72" fill="none" stroke="#e83f4f" stroke-width="18" stroke-linecap="round"/>
      <text x="70" y="80" text-anchor="middle" font-family="Arial, sans-serif" font-size="31" font-weight="800" fill="#20262b">7d</text>
      <text x="70" y="164" text-anchor="middle" font-family="PingFang SC, Noto Sans CJK SC, Arial, sans-serif" font-size="25" font-weight="700" fill="#53616b">额度</text>
    </g>

    <g transform="translate(600 206)">
      <rect x="0" y="10" width="154" height="120" rx="24" fill="#ffffff" stroke="#20262b" stroke-width="5"/>
      <path d="M34 78c24-45 52 44 88-18" fill="none" stroke="#5c86a3" stroke-width="10" stroke-linecap="round"/>
      <text x="77" y="164" text-anchor="middle" font-family="PingFang SC, Noto Sans CJK SC, Arial, sans-serif" font-size="25" font-weight="700" fill="#53616b">系统</text>
    </g>
  </g>

  <text x="116" y="1202" font-family="PingFang SC, Noto Sans CJK SC, Arial, sans-serif" font-size="44" font-weight="800" fill="#111418">Kaji · 给 AI coding 掌舵</text>
  <text x="116" y="1270" font-family="PingFang SC, Noto Sans CJK SC, Arial, sans-serif" font-size="30" font-weight="600" fill="#53616b">GitHub: MisterBrookT/kaji</text>
</svg>
